<svg width="21" height="21" viewBox="0 0 21 21" fill="none" xmlns="http://www.w3.org/2000/svg">
<path d="M0.916992 10.5007C0.916992 6.88678 0.916992 5.07936 2.04016 3.95715C3.16333 2.83494 4.96978 2.83398 8.58366 2.83398H12.417C16.0309 2.83398 17.8383 2.83398 18.9605 3.95715C20.0827 5.08032 20.0837 6.88678 20.0837 10.5007V12.4173C20.0837 16.0312 20.0837 17.8386 18.9605 18.9608C17.8373 20.083 16.0309 20.084 12.417 20.084H8.58366C4.96978 20.084 3.16237 20.084 2.04016 18.9608C0.91795 17.8376 0.916992 16.0312 0.916992 12.4173V10.5007Z" stroke="#737CF5" stroke-width="1.5"/>
<path d="M5.70898 2.83398V1.39648M15.2923 2.83398V1.39648M1.39648 7.62565H19.6048" stroke="#737CF5" stroke-width="1.5" stroke-linecap="round"/>
<path d="M16.25 15.2917C16.25 15.5458 16.149 15.7896 15.9693 15.9693C15.7896 16.149 15.5458 16.25 15.2917 16.25C15.0375 16.25 14.7937 16.149 14.614 15.9693C14.4343 15.7896 14.3333 15.5458 14.3333 15.2917C14.3333 15.0375 14.4343 14.7937 14.614 14.614C14.7937 14.4343 15.0375 14.3333 15.2917 14.3333C15.5458 14.3333 15.7896 14.4343 15.9693 14.614C16.149 14.7937 16.25 15.0375 16.25 15.2917ZM16.25 11.4583C16.25 11.7125 16.149 11.9563 15.9693 12.136C15.7896 12.3157 15.5458 12.4167 15.2917 12.4167C15.0375 12.4167 14.7937 12.3157 14.614 12.136C14.4343 11.9563 14.3333 11.7125 14.3333 11.4583C14.3333 11.2042 14.4343 10.9604 14.614 10.7807C14.7937 10.601 15.0375 10.5 15.2917 10.5C15.5458 10.5 15.7896 10.601 15.9693 10.7807C16.149 10.9604 16.25 11.2042 16.25 11.4583ZM11.4583 15.2917C11.4583 15.5458 11.3574 15.7896 11.1776 15.9693C10.9979 16.149 10.7542 16.25 10.5 16.25C10.2458 16.25 10.0021 16.149 9.82236 15.9693C9.64263 15.7896 9.54167 15.5458 9.54167 15.2917C9.54167 15.0375 9.64263 14.7937 9.82236 14.614C10.0021 14.4343 10.2458 14.3333 10.5 14.3333C10.7542 14.3333 10.9979 14.4343 11.1776 14.614C11.3574 14.7937 11.4583 15.0375 11.4583 15.2917ZM11.4583 11.4583C11.4583 11.7125 11.3574 11.9563 11.1776 12.136C10.9979 12.3157 10.7542 12.4167 10.5 12.4167C10.2458 12.4167 10.0021 12.3157 9.82236 12.136C9.64263 11.9563 9.54167 11.7125 9.54167 11.4583C9.54167 11.2042 9.64263 10.9604 9.82236 10.7807C10.0021 10.601 10.2458 10.5 10.5 10.5C10.7542 10.5 10.9979 10.601 11.1776 10.7807C11.3574 10.9604 11.4583 11.2042 11.4583 11.4583ZM6.66667 15.2917C6.66667 15.5458 6.5657 15.7896 6.38598 15.9693C6.20625 16.149 5.9625 16.25 5.70833 16.25C5.45417 16.25 5.21041 16.149 5.03069 15.9693C4.85097 15.7896 4.75 15.5458 4.75 15.2917C4.75 15.0375 4.85097 14.7937 5.03069 14.614C5.21041 14.4343 5.45417 14.3333 5.70833 14.3333C5.9625 14.3333 6.20625 14.4343 6.38598 14.614C6.5657 14.7937 6.66667 15.0375 6.66667 15.2917ZM6.66667 11.4583C6.66667 11.7125 6.5657 11.9563 6.38598 12.136C6.20625 12.3157 5.9625 12.4167 5.70833 12.4167C5.45417 12.4167 5.21041 12.3157 5.03069 12.136C4.85097 11.9563 4.75 11.7125 4.75 11.4583C4.75 11.2042 4.85097 10.9604 5.03069 10.7807C5.21041 10.601 5.45417 10.5 5.70833 10.5C5.9625 10.5 6.20625 10.601 6.38598 10.7807C6.5657 10.9604 6.66667 11.2042 6.66667 11.4583Z" fill="#737CF5"/>
</svg>
