<svg width="19" height="19" viewBox="0 0 19 19" fill="none" xmlns="http://www.w3.org/2000/svg">
<path d="M8.53702 2.485V6.20333C8.53702 6.51122 8.47622 6.81607 8.35811 7.10039C8.24 7.38472 8.0669 7.64292 7.84875 7.86018C7.6306 8.07744 7.37169 8.24948 7.08688 8.36643C6.80208 8.48338 6.49698 8.54293 6.1891 8.54167H2.48993C2.18288 8.54353 1.87862 8.48338 1.59538 8.36481C1.31214 8.24625 1.05576 8.07171 0.8416 7.85167C0.624168 7.63605 0.451982 7.37918 0.335142 7.09613C0.218301 6.81308 0.159159 6.50954 0.161183 6.20333V2.49458C0.161178 1.87608 0.406221 1.28276 0.842673 0.844511C1.27913 0.406263 1.87143 0.158785 2.48993 0.15625H6.19868C6.50541 0.156545 6.80903 0.217682 7.09197 0.336121C7.37491 0.454561 7.63155 0.62795 7.84702 0.84625C8.06503 1.05994 8.23832 1.3149 8.35678 1.59625C8.47524 1.8776 8.53651 2.17972 8.53702 2.485ZM18.8391 2.49458V6.20333C18.8341 6.82031 18.5875 7.41074 18.1521 7.84792C17.7167 8.28509 17.1273 8.53416 16.5103 8.54167H12.792C12.1722 8.53787 11.5779 8.29399 11.1341 7.86125C10.9172 7.64322 10.7455 7.38455 10.6288 7.10006C10.512 6.81557 10.4525 6.51085 10.4537 6.20333V2.49458C10.4529 2.1877 10.5136 1.88376 10.6321 1.60067C10.7506 1.31758 10.9245 1.06107 11.1437 0.84625C11.3592 0.62795 11.6158 0.454561 11.8987 0.336121C12.1817 0.217682 12.4853 0.156545 12.792 0.15625H16.5008C17.1194 0.161259 17.7112 0.409227 18.1487 0.846668C18.5861 1.28411 18.8341 1.87597 18.8391 2.49458ZM18.8391 12.7967V16.5054C18.8341 17.1224 18.5875 17.7128 18.1521 18.15C17.7167 18.5872 17.1273 18.8362 16.5103 18.8438H12.792C12.1682 18.8501 11.5666 18.6129 11.1149 18.1825C10.8972 17.9651 10.7249 17.7066 10.6081 17.4219C10.4913 17.1373 10.4323 16.8323 10.4345 16.5246V12.8158C10.4337 12.5089 10.4944 12.205 10.6129 11.9219C10.7314 11.6388 10.9054 11.3823 11.1245 11.1675C11.34 10.9492 11.5966 10.7758 11.8796 10.6574C12.1625 10.5389 12.4661 10.4778 12.7728 10.4775H16.4816C17.1002 10.4825 17.6921 10.7305 18.1295 11.1679C18.567 11.6054 18.8149 12.1972 18.8199 12.8158L18.8391 12.7967ZM8.53702 12.8063V16.515C8.52948 17.1336 8.27909 17.7244 7.83985 18.1601C7.40061 18.5957 6.80774 18.8413 6.1891 18.8438H2.48993C2.18376 18.845 1.88037 18.7857 1.59726 18.6691C1.31415 18.5525 1.05693 18.381 0.840431 18.1645C0.623934 17.948 0.452448 17.6908 0.335866 17.4077C0.219285 17.1246 0.159915 16.8212 0.161183 16.515V12.8063C0.163652 12.1876 0.409192 11.5947 0.844842 11.1555C1.28049 10.7163 1.87134 10.4659 2.48993 10.4583H6.19868C6.81988 10.4647 7.41432 10.7121 7.8566 11.1483C8.29369 11.5893 8.53833 12.1854 8.53702 12.8063Z" fill="#B3B3B3"/>
</svg>
