<svg width="12" height="10" viewBox="0 0 12 10" fill="none" xmlns="http://www.w3.org/2000/svg">
<path d="M0.70586 9.78822C0.70586 9.78822 0 9.78822 0 8.97254C0 8.15685 0.70586 5.7098 4.23516 5.7098C7.76446 5.7098 8.47032 8.15685 8.47032 8.97254C8.47032 9.78822 7.76446 9.78822 7.76446 9.78822H0.70586ZM4.23516 4.89411C4.79678 4.89411 5.33539 4.6363 5.73252 4.17738C6.12964 3.71847 6.35274 3.09605 6.35274 2.44706C6.35274 1.79806 6.12964 1.17564 5.73252 0.716726C5.33539 0.257814 4.79678 0 4.23516 0C3.67354 0 3.13493 0.257814 2.73781 0.716726C2.34068 1.17564 2.11758 1.79806 2.11758 2.44706C2.11758 3.09605 2.34068 3.71847 2.73781 4.17738C3.13493 4.6363 3.67354 4.89411 4.23516 4.89411Z" fill="#F87706"/>
<path fill-rule="evenodd" clip-rule="evenodd" d="M10.2354 1.14062C10.329 1.14062 10.4187 1.18359 10.4849 1.26008C10.5511 1.33656 10.5883 1.4403 10.5883 1.54847V2.772H11.6471C11.7407 2.772 11.8304 2.81496 11.8966 2.89145C11.9628 2.96793 12 3.07167 12 3.17984C12 3.288 11.9628 3.39174 11.8966 3.46823C11.8304 3.54471 11.7407 3.58768 11.6471 3.58768H10.5883V4.81121C10.5883 4.91937 10.5511 5.02311 10.4849 5.0996C10.4187 5.17608 10.329 5.21905 10.2354 5.21905C10.1418 5.21905 10.052 5.17608 9.98579 5.0996C9.91961 5.02311 9.88242 4.91937 9.88242 4.81121V3.58768H8.82363C8.73003 3.58768 8.64026 3.54471 8.57407 3.46823C8.50789 3.39174 8.4707 3.288 8.4707 3.17984C8.4707 3.07167 8.50789 2.96793 8.57407 2.89145C8.64026 2.81496 8.73003 2.772 8.82363 2.772H9.88242V1.54847C9.88242 1.4403 9.91961 1.33656 9.98579 1.26008C10.052 1.18359 10.1418 1.14062 10.2354 1.14062Z" fill="#F87706"/>
</svg>
