<svg width="9" height="9" viewBox="0 0 9 9" fill="none" xmlns="http://www.w3.org/2000/svg">
<path d="M0.5625 4.5C0.5625 5.27876 0.79343 6.04004 1.22609 6.68756C1.65875 7.33508 2.2737 7.83976 2.99318 8.13778C3.71267 8.4358 4.50437 8.51377 5.26817 8.36184C6.03197 8.20991 6.73356 7.8349 7.28423 7.28423C7.8349 6.73356 8.20991 6.03197 8.36184 5.26817C8.51377 4.50437 8.4358 3.71267 8.13778 2.99318C7.83976 2.2737 7.33508 1.65875 6.68756 1.22609C6.04004 0.79343 5.27876 0.5625 4.5 0.5625C3.45571 0.5625 2.45419 0.977343 1.71577 1.71577C0.977343 2.45419 0.5625 3.45571 0.5625 4.5ZM2.25 4.21875H5.66719L4.09781 2.64178L4.5 2.25L6.75 4.5L4.5 6.75L4.09781 6.34866L5.66719 4.78125H2.25V4.21875Z" fill="#0873BB"/>
</svg>
