<svg width="50" height="50" viewBox="0 0 50 50" fill="none" xmlns="http://www.w3.org/2000/svg">
<circle cx="25" cy="25" r="24.5" fill="white" stroke="#0873BB"/>
<path d="M24.9997 15C23.1432 15 21.3627 15.7375 20.0499 17.0503C18.7372 18.363 17.9997 20.1435 17.9997 22V25.528C17.9998 25.6831 17.9639 25.8362 17.8947 25.975L16.1777 29.408C16.0938 29.5757 16.0542 29.7621 16.0626 29.9494C16.0711 30.1368 16.1272 30.3188 16.2258 30.4783C16.3244 30.6379 16.4622 30.7695 16.626 30.8608C16.7897 30.9521 16.9742 31 17.1617 31H32.8377C33.0252 31 33.2096 30.9521 33.3734 30.8608C33.5372 30.7695 33.6749 30.6379 33.7735 30.4783C33.8721 30.3188 33.9283 30.1368 33.9367 29.9494C33.9452 29.7621 33.9056 29.5757 33.8217 29.408L32.1057 25.975C32.0361 25.8362 31.9999 25.6832 31.9997 25.528V22C31.9997 20.1435 31.2622 18.363 29.9494 17.0503C28.6367 15.7375 26.8562 15 24.9997 15ZM24.9997 34C24.379 34.0003 23.7736 33.8081 23.2667 33.4499C22.7599 33.0917 22.3766 32.5852 22.1697 32H27.8297C27.6228 32.5852 27.2395 33.0917 26.7327 33.4499C26.2258 33.8081 25.6203 34.0003 24.9997 34Z" fill="#0873BB"/>
</svg>
