<svg width="19" height="20" viewBox="0 0 19 20" fill="none" xmlns="http://www.w3.org/2000/svg">
<path d="M16.6875 1.875H14.5312V1.15625C14.5312 0.965626 14.4555 0.782809 14.3207 0.648017C14.1859 0.513225 14.0031 0.4375 13.8125 0.4375C13.6219 0.4375 13.4391 0.513225 13.3043 0.648017C13.1695 0.782809 13.0938 0.965626 13.0938 1.15625V1.875H5.90625V1.15625C5.90625 0.965626 5.83052 0.782809 5.69573 0.648017C5.56094 0.513225 5.37812 0.4375 5.1875 0.4375C4.99688 0.4375 4.81406 0.513225 4.67927 0.648017C4.54448 0.782809 4.46875 0.965626 4.46875 1.15625V1.875H2.3125C1.93125 1.875 1.56562 2.02645 1.29603 2.29603C1.02645 2.56562 0.875 2.93125 0.875 3.3125V17.6875C0.875 18.0687 1.02645 18.4344 1.29603 18.704C1.56562 18.9735 1.93125 19.125 2.3125 19.125H16.6875C17.0687 19.125 17.4344 18.9735 17.704 18.704C17.9735 18.4344 18.125 18.0687 18.125 17.6875V3.3125C18.125 2.93125 17.9735 2.56562 17.704 2.29603C17.4344 2.02645 17.0687 1.875 16.6875 1.875ZM4.46875 3.3125V4.03125C4.46875 4.22187 4.54448 4.40469 4.67927 4.53948C4.81406 4.67427 4.99688 4.75 5.1875 4.75C5.37812 4.75 5.56094 4.67427 5.69573 4.53948C5.83052 4.40469 5.90625 4.22187 5.90625 4.03125V3.3125H13.0938V4.03125C13.0938 4.22187 13.1695 4.40469 13.3043 4.53948C13.4391 4.67427 13.6219 4.75 13.8125 4.75C14.0031 4.75 14.1859 4.67427 14.3207 4.53948C14.4555 4.40469 14.5312 4.22187 14.5312 4.03125V3.3125H16.6875V6.1875H2.3125V3.3125H4.46875ZM16.6875 17.6875H2.3125V7.625H16.6875V17.6875ZM12.375 12.6562C12.375 12.8469 12.2993 13.0297 12.1645 13.1645C12.0297 13.2993 11.8469 13.375 11.6562 13.375H10.2188V14.8125C10.2188 15.0031 10.143 15.1859 10.0082 15.3207C9.87344 15.4555 9.69062 15.5312 9.5 15.5312C9.30938 15.5312 9.12656 15.4555 8.99177 15.3207C8.85698 15.1859 8.78125 15.0031 8.78125 14.8125V13.375H7.34375C7.15313 13.375 6.97031 13.2993 6.83552 13.1645C6.70073 13.0297 6.625 12.8469 6.625 12.6562C6.625 12.4656 6.70073 12.2828 6.83552 12.148C6.97031 12.0132 7.15313 11.9375 7.34375 11.9375H8.78125V10.5C8.78125 10.3094 8.85698 10.1266 8.99177 9.99177C9.12656 9.85698 9.30938 9.78125 9.5 9.78125C9.69062 9.78125 9.87344 9.85698 10.0082 9.99177C10.143 10.1266 10.2188 10.3094 10.2188 10.5V11.9375H11.6562C11.8469 11.9375 12.0297 12.0132 12.1645 12.148C12.2993 12.2828 12.375 12.4656 12.375 12.6562Z" fill="#3E9997"/>
</svg>
