<svg width="23" height="15" viewBox="0 0 23 15" fill="none" xmlns="http://www.w3.org/2000/svg">
<path d="M15.333 6.54102C16.9238 6.54102 18.1984 5.25685 18.1984 3.66602C18.1984 2.07518 16.9238 0.791016 15.333 0.791016C13.7422 0.791016 12.458 2.07518 12.458 3.66602C12.458 5.25685 13.7422 6.54102 15.333 6.54102ZM7.66634 6.54102C9.25717 6.54102 10.5318 5.25685 10.5318 3.66602C10.5318 2.07518 9.25717 0.791016 7.66634 0.791016C6.07551 0.791016 4.79134 2.07518 4.79134 3.66602C4.79134 5.25685 6.07551 6.54102 7.66634 6.54102ZM7.66634 8.45768C5.43342 8.45768 0.958008 9.57893 0.958008 11.8118V13.2493C0.958008 13.7764 1.38926 14.2077 1.91634 14.2077H13.4163C13.9434 14.2077 14.3747 13.7764 14.3747 13.2493V11.8118C14.3747 9.57893 9.89926 8.45768 7.66634 8.45768ZM15.333 8.45768C15.0551 8.45768 14.7388 8.47685 14.4034 8.5056C14.4226 8.51518 14.4322 8.53435 14.4418 8.54393C15.5343 9.33935 16.2913 10.4031 16.2913 11.8118V13.2493C16.2913 13.5848 16.2243 13.9106 16.1188 14.2077H21.083C21.6101 14.2077 22.0413 13.7764 22.0413 13.2493V11.8118C22.0413 9.57893 17.5659 8.45768 15.333 8.45768Z" fill="#B3B3B3"/>
</svg>
