<svg width="16" height="20" viewBox="0 0 16 20" fill="none" xmlns="http://www.w3.org/2000/svg">
<path d="M14.1373 1.875H12.2164V1.15625C12.2164 0.965626 12.1489 0.782809 12.0288 0.648017C11.9088 0.513225 11.7459 0.4375 11.5761 0.4375C11.4063 0.4375 11.2434 0.513225 11.1233 0.648017C11.0033 0.782809 10.9358 0.965626 10.9358 1.15625V1.875H4.53285V1.15625C4.53285 0.965626 4.46539 0.782809 4.34531 0.648017C4.22523 0.513225 4.06237 0.4375 3.89255 0.4375C3.72273 0.4375 3.55987 0.513225 3.43979 0.648017C3.31972 0.782809 3.25226 0.965626 3.25226 1.15625V1.875H1.33137C0.991738 1.875 0.666014 2.02645 0.425857 2.29603C0.1857 2.56562 0.0507813 2.93125 0.0507812 3.3125V17.6875C0.0507813 18.0687 0.1857 18.4344 0.425857 18.704C0.666014 18.9735 0.991738 19.125 1.33137 19.125H14.1373C14.4769 19.125 14.8026 18.9735 15.0428 18.704C15.2829 18.4344 15.4179 18.0687 15.4179 17.6875V3.3125C15.4179 2.93125 15.2829 2.56562 15.0428 2.29603C14.8026 2.02645 14.4769 1.875 14.1373 1.875ZM3.25226 3.3125V4.03125C3.25226 4.22187 3.31972 4.40469 3.43979 4.53948C3.55987 4.67427 3.72273 4.75 3.89255 4.75C4.06237 4.75 4.22523 4.67427 4.34531 4.53948C4.46539 4.40469 4.53285 4.22187 4.53285 4.03125V3.3125H10.9358V4.03125C10.9358 4.22187 11.0033 4.40469 11.1233 4.53948C11.2434 4.67427 11.4063 4.75 11.5761 4.75C11.7459 4.75 11.9088 4.67427 12.0288 4.53948C12.1489 4.40469 12.2164 4.22187 12.2164 4.03125V3.3125H14.1373V6.1875H1.33137V3.3125H3.25226ZM14.1373 17.6875H1.33137V7.625H14.1373V17.6875ZM10.2955 12.6562C10.2955 12.8469 10.228 13.0297 10.108 13.1645C9.98788 13.2993 9.82502 13.375 9.6552 13.375H8.37461V14.8125C8.37461 15.0031 8.30716 15.1859 8.18708 15.3207C8.067 15.4555 7.90414 15.5312 7.73432 15.5312C7.5645 15.5312 7.40164 15.4555 7.28156 15.3207C7.16148 15.1859 7.09403 15.0031 7.09403 14.8125V13.375H5.81344C5.64362 13.375 5.48076 13.2993 5.36068 13.1645C5.2406 13.0297 5.17314 12.8469 5.17314 12.6562C5.17314 12.4656 5.2406 12.2828 5.36068 12.148C5.48076 12.0132 5.64362 11.9375 5.81344 11.9375H7.09403V10.5C7.09403 10.3094 7.16148 10.1266 7.28156 9.99177C7.40164 9.85698 7.5645 9.78125 7.73432 9.78125C7.90414 9.78125 8.067 9.85698 8.18708 9.99177C8.30716 10.1266 8.37461 10.3094 8.37461 10.5V11.9375H9.6552C9.82502 11.9375 9.98788 12.0132 10.108 12.148C10.228 12.2828 10.2955 12.4656 10.2955 12.6562Z" fill="#FFD188"/>
</svg>
