<svg width="21" height="21" viewBox="0 0 21 21" fill="none" xmlns="http://www.w3.org/2000/svg">
<path d="M19.7715 13.0533L18.3003 11.7955C18.3699 11.3687 18.4059 10.933 18.4059 10.4972C18.4059 10.0615 18.3699 9.62573 18.3003 9.19897L19.7715 7.94116C19.8825 7.84617 19.9619 7.71964 19.9992 7.57841C20.0365 7.43719 20.0299 7.28795 19.9804 7.15054L19.9602 7.09214C19.5552 5.96016 18.9487 4.9108 18.17 3.99478L18.1296 3.94761C18.0351 3.83654 17.9092 3.7567 17.7685 3.71861C17.6278 3.68052 17.4788 3.68597 17.3412 3.73423L15.5151 4.38335C14.8413 3.83081 14.0889 3.39507 13.2758 3.0896L12.9231 1.18042C12.8965 1.03676 12.8269 0.904605 12.7234 0.801499C12.6198 0.698393 12.4874 0.629221 12.3437 0.603174L12.283 0.591943C11.1128 0.380811 9.88194 0.380811 8.71172 0.591943L8.65108 0.603174C8.50732 0.629221 8.37489 0.698393 8.27138 0.801499C8.16788 0.904605 8.09819 1.03676 8.07159 1.18042L7.7167 3.09858C6.91011 3.40413 6.15897 3.83964 5.49307 4.38784L3.65352 3.73423C3.51598 3.68558 3.3669 3.67994 3.22608 3.71806C3.08526 3.75617 2.95937 3.83623 2.86514 3.94761L2.82471 3.99478C2.04699 4.91145 1.44061 5.96064 1.03457 7.09214L1.01436 7.15054C0.913286 7.4313 0.996391 7.74575 1.22325 7.94116L2.71241 9.21245C2.64278 9.63472 2.60909 10.066 2.60909 10.495C2.60909 10.9262 2.64278 11.3575 2.71241 11.7775L1.22325 13.0488C1.11228 13.1438 1.03286 13.2703 0.995547 13.4115C0.958234 13.5528 0.964795 13.702 1.01436 13.8394L1.03457 13.8978C1.44112 15.0298 2.04307 16.0743 2.82471 16.9952L2.86514 17.0423C2.9596 17.1534 3.08549 17.2332 3.22623 17.2713C3.36696 17.3094 3.51594 17.304 3.65352 17.2557L5.49307 16.6021C6.16241 17.1524 6.91036 17.5881 7.7167 17.8914L8.07159 19.8095C8.09819 19.9532 8.16788 20.0853 8.27138 20.1884C8.37489 20.2915 8.50732 20.3607 8.65108 20.3868L8.71172 20.398C9.89269 20.6103 11.102 20.6103 12.283 20.398L12.3437 20.3868C12.4874 20.3607 12.6198 20.2915 12.7234 20.1884C12.8269 20.0853 12.8965 19.9532 12.9231 19.8095L13.2758 17.9003C14.0885 17.5957 14.8452 17.1585 15.5151 16.6066L17.3412 17.2557C17.4788 17.3044 17.6278 17.31 17.7687 17.2719C17.9095 17.2338 18.0354 17.1537 18.1296 17.0423L18.17 16.9952C18.9517 16.072 19.5536 15.0298 19.9602 13.8978L19.9804 13.8394C20.0814 13.5631 19.9983 13.2487 19.7715 13.0533ZM16.7056 9.46401C16.7617 9.80317 16.7909 10.1513 16.7909 10.4995C16.7909 10.8476 16.7617 11.1958 16.7056 11.5349L16.5573 12.4356L18.2352 13.8708C17.9808 14.4568 17.6597 15.0115 17.2783 15.524L15.1939 14.785L14.4887 15.3645C13.9519 15.8047 13.3544 16.1506 12.7075 16.3932L11.8518 16.7144L11.4497 18.8931C10.8153 18.965 10.1749 18.965 9.54053 18.8931L9.13848 16.7099L8.28946 16.3842C7.64932 16.1417 7.05411 15.7958 6.52178 15.3578L5.81651 14.776L3.71866 15.5217C3.33682 15.0074 3.01788 14.4526 2.76182 13.8686L4.45762 12.4199L4.31163 11.5214C4.25772 11.1868 4.22852 10.8409 4.22852 10.4995C4.22852 10.1558 4.25547 9.81216 4.31163 9.47749L4.45762 8.57905L2.76182 7.13032C3.01563 6.54409 3.33682 5.99155 3.71866 5.4772L5.81651 6.2229L6.52178 5.64116C7.05411 5.20317 7.64932 4.85728 8.28946 4.6147L9.14073 4.29351L9.54278 2.1103C10.1739 2.03843 10.8186 2.03843 11.452 2.1103L11.854 4.28901L12.7098 4.61021C13.3544 4.85278 13.9541 5.19868 14.4909 5.63892L15.1962 6.21841L17.2806 5.47944C17.6624 5.9938 17.9814 6.54858 18.2374 7.13257L16.5596 8.56782L16.7056 9.46401ZM10.4996 6.32173C8.31641 6.32173 6.54649 8.09165 6.54649 10.2749C6.54649 12.4581 8.31641 14.228 10.4996 14.228C12.6828 14.228 14.4527 12.4581 14.4527 10.2749C14.4527 8.09165 12.6828 6.32173 10.4996 6.32173ZM12.2785 12.0538C12.0452 12.2878 11.7679 12.4733 11.4626 12.5997C11.1573 12.7262 10.8301 12.791 10.4996 12.7905C9.82803 12.7905 9.19688 12.5277 8.72071 12.0538C8.48672 11.8204 8.30117 11.5432 8.17473 11.2379C8.0483 10.9326 7.98347 10.6053 7.98399 10.2749C7.98399 9.60327 8.24678 8.97212 8.72071 8.49595C9.19688 8.01977 9.82803 7.75923 10.4996 7.75923C11.1712 7.75923 11.8023 8.01977 12.2785 8.49595C12.5125 8.72927 12.6981 9.00655 12.8245 9.31184C12.9509 9.61714 13.0158 9.94442 13.0152 10.2749C13.0152 10.9464 12.7524 11.5776 12.2785 12.0538Z" fill="#B3B3B3"/>
</svg>
