<svg width="23" height="23" viewBox="0 0 23 23" fill="none" xmlns="http://www.w3.org/2000/svg">
<path d="M15.333 10.541C16.9238 10.541 18.1984 9.25685 18.1984 7.66602C18.1984 6.07518 16.9238 4.79102 15.333 4.79102C13.7422 4.79102 12.458 6.07518 12.458 7.66602C12.458 9.25685 13.7422 10.541 15.333 10.541ZM7.66634 10.541C9.25717 10.541 10.5318 9.25685 10.5318 7.66602C10.5318 6.07518 9.25717 4.79102 7.66634 4.79102C6.07551 4.79102 4.79134 6.07518 4.79134 7.66602C4.79134 9.25685 6.07551 10.541 7.66634 10.541ZM7.66634 12.4577C5.43342 12.4577 0.958008 13.5789 0.958008 15.8118V17.2493C0.958008 17.7764 1.38926 18.2077 1.91634 18.2077H13.4163C13.9434 18.2077 14.3747 17.7764 14.3747 17.2493V15.8118C14.3747 13.5789 9.89926 12.4577 7.66634 12.4577ZM15.333 12.4577C15.0551 12.4577 14.7388 12.4768 14.4034 12.5056C14.4226 12.5152 14.4322 12.5343 14.4418 12.5439C15.5343 13.3393 16.2913 14.4031 16.2913 15.8118V17.2493C16.2913 17.5848 16.2243 17.9106 16.1188 18.2077H21.083C21.6101 18.2077 22.0413 17.7764 22.0413 17.2493V15.8118C22.0413 13.5789 17.5659 12.4577 15.333 12.4577Z" fill="#727FF2"/>
</svg>
